<?xml version="1.0" encoding="utf-8"?>
<!-- Generator: Adobe Illustrator 22.0.1, SVG Export Plug-In . SVG Version: 6.00 Build 0)  -->
<svg version="1.1" id="图层_1" xmlns="http://www.w3.org/2000/svg" xmlns:xlink="http://www.w3.org/1999/xlink" x="0px" y="0px"
	 viewBox="0 0 500 160" style="enable-background:new 0 0 500 160;" xml:space="preserve">
<style type="text/css">
	.st0{fill:#ADABAC;}
</style>
<g id="_x23_5c4ea0ff">
	<path class="st0" d="M0,25c8,4.6,15.8,9,23.8,13.9c0,7.6,0,15.4,0,23c10.2,0.2,20.7-0.5,31.1,0.2c8.4,3.9,16,9.5,24.2,14.2
		c-26.2,0-52.5,0-78.7,0C0,59.2,0,42.1,0,25z"/>
	<path class="st0" d="M61.1,25c8,4.4,16,9,24.2,13.2c0.2,11.7,0,23.2,0.2,35c-8-4.9-15.8-10.3-24-14.9C60.9,47,61.4,36,61.1,25z"/>
	<path class="st0" d="M125.2,57.8c3.1,0,6.2-0.2,9.6-0.2c0,5.9,0,11.7,0,17.4c5.3,0,10.4,0,15.8,0c0-5.9,0-11.7,0-17.4
		c3.1,0,6.2,0,9.3,0c0,15.2,0,30.3,0,45.5c-3.1,0-6.2,0-9.3,0c0-6.4,0-13,0-19.3c-5.3,0-10.4,0-15.8,0c0,6.4,0,13,0,19.3
		c-3.1,0-6.2,0-9.3,0C125.2,87.8,125.4,72.9,125.2,57.8z"/>
	<path class="st0" d="M184.3,58.2c5.6-2.4,12-2.4,17.6,0.2c15.3,7.3,15.6,35.7,0.4,43.3c-8.9,4.4-21.1,2.2-26.7-7.3
		C168.7,82.7,171.6,63.6,184.3,58.2 M186.5,67.8c-8.2,7.1-6.2,26.9,5.8,27.1c10.2,0.5,13.3-13.4,10-22
		C200.3,65.8,191.6,63.4,186.5,67.8z"/>
	<path class="st0" d="M225.2,63.6c5.6-9.5,17.6-7.8,26-4.6c-0.9,2.7-1.8,5.4-2.7,8.3c-4.7-1-13.3-5.1-15.6,1.7
		c1.3,6.1,8.9,6.1,13.1,9.3c8.2,3.4,9.3,18.1,1.8,22.7c-7.8,4.4-17.1,2.9-25.1-0.2c0.7-2.7,1.6-5.4,2.4-8.1
		c5.6,1.5,12.4,4.6,17.8,0.2c2.7-7.1-6.2-8.1-10-10.5C225.9,80.5,221,71,225.2,63.6z"/>
	<path class="st0" d="M260.1,57.5c11.6,0,22.9,0,34.5,0c0,2.9,0,5.9,0,8.8c-4.2,0-8.4,0-12.4,0c0,12.2,0,24.4,0,36.7
		c-3.1,0-6.2,0-9.3,0c0-12.2,0-24.4,0-36.7c-4.2,0-8.4,0-12.7,0C260.1,63.4,260.1,60.4,260.1,57.5z"/>
	<path class="st0" d="M304.8,57.8c3.1,0,6.4-0.2,9.6-0.2c0,15.2,0,30.3,0,45.7c-3.1,0-6.2,0-9.3,0C305,88.1,305.2,72.9,304.8,57.8z"
		/>
	<path class="st0" d="M328.4,57.5c2.4,0,5.1,0,7.6,0c6.9,8.3,12.9,17.6,18.9,26.9c0-9,0-17.8,0-26.9c3.1,0,6.2,0,9.3,0
		c0,15.2,0,30.3,0,45.5c-2,0-5.8,0-7.8,0c-5.6-10.5-11.8-20.5-18.7-29.8c0,10,0,19.8,0,29.8c-3.1,0-6.2,0-9.3,0
		C328.4,87.8,328.4,72.7,328.4,57.5z"/>
	<path class="st0" d="M387.7,58.7c7.6-3.9,16-2.2,23.6,0.7c-0.9,2.7-1.8,5.6-2.7,8.3c-6.2-2.2-14.9-4.4-19.8,2.2
		c-3.6,6.4-3.6,15.6,0.9,21.5c3.1,3.9,8.2,3.4,12.7,3.7c0-5.4,0-10.8,0-16.1c3.1,0,6.2,0,9.3,0c0,7.6,0,15.2,0,22.7
		c-8,2-16.9,3.7-24.7-0.2C372.6,93.7,373.1,66.3,387.7,58.7z"/>
	<path class="st0" d="M425.1,57.3c9.3,0.2,18.7,0,28,0.2c0,2.9,0,5.6,0,8.6c-6.2,0-12.4,0-18.7,0c0,2.2,0,6.6,0,8.8
		c5.6,0,11.1,0,16.7,0c0,2.7,0,5.6,0,8.3c-5.6,0-11.1,0-16.7,0c0,3.7,0,7.3,0,11c6.7,0,13.3,0,20,0c0,2.9,0,5.6,0,8.6
		c-9.8,0-19.8,0-29.6,0C425.1,87.8,424.6,72.7,425.1,57.3z"/>
	<path class="st0" d="M466,58c8.9-0.7,19.1-2.7,27.1,3.2c7.1,6.1,5.1,19.6-3.1,23.7c3.8,5.9,7.1,12,10,18.3c-3.6,0-7.3-0.2-10.9-0.2
		c-3.8-6.1-5.6-16.6-13.8-16.9c-0.2,5.6-0.2,11.5-0.2,17.1c-3.1,0-6.2,0-9.3,0C465.8,88.1,465.5,72.9,466,58 M475.1,65.6
		c0,4.4,0,8.6,0,13c4.4-0.7,12.5,0.5,12.5-6.8C487.3,64.8,479.5,66.1,475.1,65.6z"/>
	<path class="st0" d="M5.3,82.9c26.2-0.5,52.7,1.7,78.9-0.7c2.9,17.4,0.9,35.4,0.9,52.8h-0.9c-6.9-6.4-15.6-9.5-23.1-14.7
		c0-7.6,0-15.2,0-22.7c-10.2-0.2-20.7,0.5-31.1-0.5C21.6,93.7,13.8,87.3,5.3,82.9z"/>
	<path class="st0" d="M0,86.8c8,5.1,16.2,9.8,23.8,15.6c-0.4,10.5-0.2,21-0.2,31.3c-7.8-4.4-15.8-9-23.6-13.4C0,109.3,0,98.1,0,86.8
		z"/>
</g>
</svg>
