<?xml version="1.0" encoding="utf-8"?>
<!-- Generator: Adobe Illustrator 22.0.0, SVG Export Plug-In . SVG Version: 6.00 Build 0)  -->
<svg version="1.1" id="图层_1" xmlns="http://www.w3.org/2000/svg" xmlns:xlink="http://www.w3.org/1999/xlink" x="0px" y="0px"
	 viewBox="0 0 600 500" style="enable-background:new 0 0 600 500;" xml:space="preserve">
<style type="text/css">
	.st0{fill:#CC0000;}
	.st1{fill:#EE4136;}
	.st2{fill:#414042;}
	.st3{fill:#F7931E;}
	.st4{fill:#EC361F;}
	.st5{fill:#FF9900;}
</style>
<g id="_x23_cc0000ff">
	<path class="st0" d="M161.8,148c3-3.6,7.2-6.8,12-7c5.7,0,10.9,4.5,12,10c1,4.7-0.3,9.5-2.1,13.9c-3.6,8.3-9.5,15.4-15.8,21.8
		c-2.6,2.6-5.5,4.9-8.5,7.1c-0.9,0.7-1.9,1.4-2.8,2c-0.1,2.8-0.9,6-3.6,7.4c-3.8,2.4-9.3,0.1-10.4-4.2c-1.3-4.1,2-8.8,6.3-9
		c2.5-0.3,4.6,1.4,6.5,2.7c0.9-0.6,1.7-1.2,2.6-1.8c3.1-2.2,5.9-4.7,8.6-7.3c7.6-8,15.3-17.2,16.5-28.6c0.8-6.4-6.1-13.1-12.4-10.1
		c-8.2,4.3-13.1,13.7-13.5,22.8c-1.1,0.1-2.1,0.2-3.1,0.2C154,160.6,157.2,153.6,161.8,148z"/>
	<path class="st0" d="M178.5,201.3c5.7,1.3,11.5,2.4,17.2,3.8c3.4,0.8,5.7,4.5,5.1,7.9c-1.2,12.6-2.4,25.3-3.6,37.9
		c-0.1,2.5-1.7,4.6-3.7,6c-13.4,9.8-26.8,19.6-40.1,29.5c9.1-21.5,18.1-43,27.2-64.5c1.4-3.4,3.4-7.1,2.2-10.9
		C181.8,207.6,180,204.6,178.5,201.3z"/>
	<path class="st0" d="M478.3,238.5c8-6.9,19.4-8.5,29.6-7c7.5,1.1,15.2,4.2,19.8,10.5c3.1,4.1,4.1,9.2,4.3,14.2
		c-5.6,0-11.1,0-16.7,0c-0.3-4.4-2.7-9.1-7.2-10.5c-5.4-1.7-11.8-2.1-16.8,0.9c-4.5,2.6-5.1,10.6,0.2,12.6c10,4.4,21.4,5,31.2,9.8
		c5.8,2.9,10.6,8.3,11.5,14.9c1.4,8.2-1.7,17.1-8.4,22.2c-7.9,6-18.4,7.4-28.1,6.7c-8.9-0.7-18.2-3.8-24.1-10.8
		c-4-4.7-5.6-10.9-5.6-16.9c5.5,0,11.1,0,16.7,0c0.3,4.1,1.6,8.4,5.1,10.9c5.7,4.1,13.4,4.3,20,2.7c4.1-0.9,8.2-4.1,8-8.6
		c0.3-4.1-3.3-7-6.8-8.4c-10.8-4.4-23.4-4.5-33-11.8C468.2,262.4,469.2,246.1,478.3,238.5z"/>
	<path class="st0" d="M202.2,233c9.8,0.1,20.2-1,29.4,3.3c9.1,3.9,15.5,12.6,17.7,22.1c2.3,9.7,2.1,20-0.8,29.5
		c-2.2,7.1-6.7,13.7-13,17.7c-5.8,3.8-12.8,5.3-19.6,5.4c-11.4,0-22.8,0-34.2,0c0-13.7,0.1-27.4,0-41.2c5.6-4.7,12.2-8.3,17.4-13.5
		c-0.1,13.4-0.1,26.8-0.1,40.2c8.3-0.6,17.4,1.6,25.1-2.5c7.1-3.9,9.7-12.5,9.7-20.1c0.1-7.9-1-17-7.6-22.2
		c-7.2-5.5-16.7-4.1-25.1-4.3C201.3,242.7,201.7,237.9,202.2,233z"/>
	<path class="st0" d="M262.6,233c19.5,0,39,0,58.5,0c0,4.8,0,9.6,0,14.5c-13.7,0-27.4,0.1-41.2,0c-0.1,5.5,0,11-0.1,16.6
		c12.6,0,25.2,0,37.9,0c0,4.5,0,9,0,13.5c-12.6,0-25.2,0.1-37.8-0.1c-0.1,6.4-0.1,12.7,0,19.1c14,0,28.1,0,42.1,0
		c0,4.8,0,9.6,0,14.5c-19.8,0-39.6,0-59.4,0C262.6,285,262.6,259,262.6,233z"/>
	<path class="st0" d="M354.3,233.2c5.9-0.3,11.8,0,17.7-0.2c9.9,26,19.5,52,29.3,78.1c-5.9,0-11.9-0.1-17.8,0
		c-2.1-5.7-4-11.5-6-17.3c-9.7,0-19.4,0-29.1,0c-2,5.7-4.1,11.4-6.1,17.2c-5.9,0.2-11.7,0-17.5,0.1
		C334.6,285.1,344.6,259.2,354.3,233.2 M352.8,281c6.7,0,13.5,0,20.2,0c-3.3-9.6-6.6-19.2-9.9-28.8
		C359.5,261.8,356.3,271.4,352.8,281z"/>
	<path class="st0" d="M408.6,233c5.8,0,11.5,0,17.2,0c0,21.2-0.1,42.4,0.1,63.6c12.7-0.1,25.3,0,38-0.1c0,4.8,0,9.6,0,14.5
		c-18.4,0-36.9,0-55.3,0C408.6,285,408.6,259,408.6,233z"/>
	<path class="st0" d="M68.3,259.5c5.5-4.2,11.2-8.1,16.6-12.4c-4.2,9.9-8.5,19.8-12.6,29.8c-1.9-2.8-4.2-5.4-5.9-8.4
		C64.6,265.7,65.5,261.6,68.3,259.5z"/>
	<path class="st0" d="M91.3,303c8.4,3.6,16.7,7.2,25.1,10.7c-2.2,1.5-4.2,3.2-6.5,4.5c-3,1.7-7.1,0.6-9-2.1
		C97.6,311.8,94.6,307.3,91.3,303z"/>
</g>
<g id="_x23_ee4136ff">
	<path class="st1" d="M117.9,184.1c12-4.1,24-8.1,36-12.2c3.2-1.3,7.2,0.2,8.7,3.3c1.5,2.7,2.6,5.6,4,8.4c-2.7,2.7-5.5,5.1-8.6,7.3
		c-3-3.2-7.6-5.3-11.9-3.6c-6.3,1.9-9,10.3-5.1,15.6c3.4,5.3,11.8,6,16,1.2c2.8-2.7,3-6.8,2.6-10.4c3-2.1,5.8-4.5,8.5-7.1
		c3.8,7.6,7.3,15.4,11,23.1c1.2,2.1,1.4,4.7,0.4,7c-6,14.4-12.2,28.8-18.2,43.2c-22.1-9.3-44.1-18.9-66.3-28.3
		c6-14.2,12-28.4,18-42.6C113.7,186.8,115.5,184.8,117.9,184.1z"/>
	<path class="st1" d="M81.2,263.9c22.2,9.2,44.1,18.9,66.2,28.2c-2.2,5.8-4.8,11.5-7.2,17.3c-1,2.4-2.1,5.2-4.7,6.3
		c-2.3,1.2-4.9,0.6-7.1-0.4c-17-7.3-34.1-14.5-51.2-21.8c-3.7-1.3-6-5.7-4.4-9.4C75.4,277.3,78.5,270.7,81.2,263.9z"/>
</g>
<path class="st2" d="M252.3,177.8c7.2-1.7,15.4-0.4,21,4.7c5.8,5.1,8.2,13.1,8.2,20.6c-0.1,7.3-2.3,15-7.7,20.1
	c-9.5,9.1-27.2,7.5-34.3-3.9c-5.4-8.7-5.9-20-1.8-29.3C240.4,184,245.8,179.2,252.3,177.8 M253.3,181.7c-5.3,1.3-9.6,5.5-11.5,10.6
	c-3.3,8.4-2.7,18.8,2.6,26.2c6.6,8.9,22,8.7,28.2-0.6c5.6-8.5,5.7-20.3,0.5-29C269.2,182.2,260.5,179.7,253.3,181.7z"/>
<path class="st2" d="M438,179.2c7.1-3.4,16.3-2.8,22.6,2c3.5,2.6,4.9,7.1,5.3,11.3c-1.6,0-3.1,0.1-4.6,0.1c-0.7-3-1.4-6.3-3.9-8.3
	c-4.8-3.9-12.2-4.3-17.6-1.4c-5.1,2.7-6,11.5-0.5,14.3c7.8,3.5,17,3.2,24.2,8.1c6.9,5.2,5.2,17.2-2.3,20.9c-7.5,3.8-17,3.7-24.5,0
	c-5.5-2.6-7.8-8.9-7.6-14.7c1.6,0,3.1,0,4.7,0c-0.1,4.9,2.2,10,6.9,11.8c6.4,2.5,14.9,2.6,20.1-2.6c3.6-3.4,3.1-10-1.4-12.4
	c-7.6-4.4-17.3-3.5-24.5-8.5C428,194.5,430.5,182.6,438,179.2z"/>
<path class="st2" d="M193.5,178c13.1,0,26.2,0,39.3,0c0,1.3,0,2.7,0,4c-5.8,0-11.5,0-17.3,0c0,15.3,0,30.7,0,46c-1.6,0-3.2,0-4.7,0
	c0-15.3,0-30.7,0-46c-5.8,0-11.5,0-17.3,0C193.5,180.7,193.5,179.4,193.5,178z"/>
<path class="st2" d="M288.8,178c7.8,0.2,15.7-0.6,23.4,0.7c6.9,1.3,12.9,6.6,14.8,13.4c2.1,7.6,2.1,16-0.6,23.4
	c-2.3,6.3-8.3,10.8-14.9,11.9c-7.5,1.1-15.2,0.4-22.8,0.6C288.8,211.4,288.8,194.7,288.8,178 M293.5,182c0,14,0,28,0,42
	c7.8-0.3,16.3,1.3,23.3-3.1c5.8-3.9,7-11.5,7-17.9c0-6.5-1.2-14.1-7.1-17.9C309.8,180.8,301.3,182.3,293.5,182z"/>
<path class="st2" d="M350.1,178.1c1.8,0,3.6-0.1,5.4-0.1c6.4,16.7,12.9,33.3,19.3,50c-1.7,0-3.4,0-5,0c-2-5-4-10-6-15
	c-7.5,0.1-15.1-0.2-22.6,0.1c-1.8,5-3.8,9.9-5.7,14.8c-1.7,0-3.4,0.1-5.1,0.1C336.9,211.4,343.6,194.8,350.1,178.1 M352.6,182.9
	c-3.3,8.7-6.5,17.4-9.8,26.1c6.5,0,12.9,0,19.4,0C359,200.3,355.9,191.5,352.6,182.9z"/>
<path class="st2" d="M369.3,178.1c1.9,0,3.7-0.1,5.6-0.1c5.6,8.4,10.8,17,16.4,25.3c5.4-8.4,10.7-17,16.3-25.3
	c1.8,0.1,3.7,0.1,5.5,0.1c-6.4,9.4-12.6,18.9-18.9,28.4c-1,1.3-0.6,3-0.7,4.6c0.1,5.7,0,11.3,0,17c-1.6,0-3.2,0-4.7,0
	c-0.1-6.9,0.3-13.9-0.2-20.8C382.3,197.4,375.9,187.7,369.3,178.1z"/>
<path class="st2" d="M418.8,178c1.9,0,3.8,0,5.7,0c0.2,6,0.9,14.5-6.1,16.9c-0.2-3.7,3.8-5.8,3.4-9.7c-0.8,0-2.3,0.1-3,0.1
	C418.8,182.9,418.8,180.5,418.8,178z"/>
<path class="st2" d="M210.5,410.4c7.2-0.1,14.3,0,21.5,0c0,0.9,0,1.8,0,2.7c-6.2,0-12.2,0-18.4,0c-0.1,3.6,0,7.3-0.1,11
	c5.5,0.2,11,0,16.5,0.1c0,0.6,0,1.9,0,2.5c-5.5,0-10.9,0-16.4,0c-0.1,4.1,0,8,0,12.1c6.2,0.1,12.5,0,18.8,0.1c0,0.6,0,1.9,0,2.5
	c-7.3,0-14.6,0-21.8,0C210.5,431.1,210.5,420.7,210.5,410.4z"/>
<path class="st2" d="M328.7,410.4c5,0.1,10.1-0.2,15.2,0.2c4.1,0.3,7.9,2.9,9.4,6.6c2.4,5.7,2.4,12.7-0.5,18.2
	c-2,3.8-6.2,5.7-10.4,5.9c-4.6,0.1-9.2,0-13.8,0.1C328.7,431.1,328.7,420.7,328.7,410.4 M332,413.1c0,8.6,0,17.2,0,25.8
	c5.1-0.3,10.8,1,15.3-1.9c3.8-2.5,4.5-7.6,4.5-11.8c-0.1-4.5-1.8-9.9-6.5-11.4C341.1,412.6,336.5,413.3,332,413.1z"/>
<path class="st2" d="M233.8,419.1c1,0,2,0,3,0c2.6,6.3,5,12.6,7.4,18.9c2.6-6.2,5-12.5,7.4-18.8c1,0,2.1,0,3.1,0
	c-2.9,7.5-6,14.9-9,22.3c-1.1,0-2.2-0.1-3.2-0.1C239.7,434,236.7,426.6,233.8,419.1z"/>
<path class="st2" d="M258.7,422.7c3.6-5.4,12.9-5.7,16.5-0.2c1.7,2.4,2,5.6,2.2,8.5c-6.1,0-12.1,0-18.2,0c0.3,2.9,1.2,6.2,3.9,7.8
	c3.9,2.4,9.7,0.4,10.9-4.2c1,0,2,0,3.1,0c-1,2.9-2.9,5.9-6,6.9c-4.4,1.5-10.3,0.7-12.9-3.6C255.7,433.3,255.7,427.1,258.7,422.7
	 M261.7,423.4c-1.3,1.5-1.8,3.4-2.3,5.2c5,0.1,10.1,0.1,15.1,0c-0.3-1.9-0.6-3.9-2-5.4C269.7,420.1,264.3,420.2,261.7,423.4z"/>
<path class="st2" d="M281.6,419.1c0.9,0,1.9,0,2.8,0c0,1.4,0,2.7,0,4.1c1.1-3.2,4.4-5,7.7-4.7c0,1,0,1.9,0,2.9
	c-3.1-0.2-6.6,1.7-7.2,5c-1,4.9-0.3,10-0.6,15c-0.9,0-1.9,0-2.8,0C281.6,434,281.6,426.6,281.6,419.1z"/>
<path class="st2" d="M293,419.1c1,0,2.1,0,3.1,0c2.4,6.3,4.8,12.7,7.3,18.8c2.4-6.3,4.8-12.5,7.2-18.8c1,0,2-0.1,3.1-0.1
	c-2.9,7.8-6,15.4-9,23.1c-1,2.5-2,5.3-4.1,7.2c-1.5,1.3-3.7,0.9-5.5,0.7c0-0.6,0-2,0-2.6c1.3-0.1,2.9,0.6,3.9-0.4
	c1.5-1.5,2.3-3.6,2.6-5.7C299,434,295.9,426.6,293,419.1z"/>
<path class="st2" d="M361.8,420.7c2.7-2.4,6.6-2.4,10.1-2c2.9,0.3,5.5,2.7,5.6,5.6c0.1,4.7-0.1,9.4,0.1,14.1c-0.1,1.5,1.8,1,2.7,0.8
	c0,0.6,0,1.6,0,2.1c-1.4,0.2-3,0.7-4.3-0.1c-1-0.5-1-1.8-1.4-2.7c-3.4,3.5-9.2,4.6-13.4,2.1c-3.4-2.1-3.7-7.6-0.5-10
	c3.8-2.7,8.7-1.7,13-3.2c2-1.7,0.8-5.3-1.5-6.2c-1.9-0.7-4-0.6-5.9-0.3c-2.3,0.5-3.6,2.7-4.1,4.8c-0.7,0-2.1,0-2.8,0
	C359.7,424.1,360.2,422.1,361.8,420.7 M363.1,432.5c-2.4,1.5-2,5.6,0.6,6.6c3.1,1.3,7.1,0.5,9.6-1.9c1.9-1.9,1.4-4.8,1.5-7.2
	C370.9,431.4,366.6,430.4,363.1,432.5z"/>
<path class="st2" d="M381.1,419.1c1,0,2.1,0,3.2,0.1c2.4,6.3,4.7,12.6,7.3,18.8c2.4-6.3,4.8-12.5,7.2-18.8c1,0,2.1,0,3.1-0.1
	c-3.1,8-6.2,16-9.4,24c-0.9,2.2-1.7,4.5-3.6,6.2c-1.6,1.3-3.7,1-5.6,0.8c0-0.9,0-1.8,0-2.7c1.1,0.1,2.2,0.1,3.4,0.2
	c1.7-1.7,2.6-3.9,3.2-6.2C386.9,434,384,426.6,381.1,419.1z"/>
<g id="_x23_f7931eff">
	<path class="st3" d="M82.4,260.8c3.6-8.8,7.4-17.6,11-26.4c22.2,9.5,44.4,19,66.6,28.6c-3.7,8.8-7.2,17.7-11.1,26.3
		C126.8,279.7,104.5,270.3,82.4,260.8z"/>
</g>
<path class="st4" d="M150.4,373.4c1-6.1,5.5-11.8,11.7-13.2c5.2-1.1,11.2-0.6,15.5,2.8c2.4,2,3.6,5.1,4.3,8c-1.6,0-3.3,0-4.9,0
	c-1.4-7.1-10.8-9.2-16.3-5.5c-4.1,2.4-5.5,7.6-5.5,12.1c-0.2,4.7,1.1,10.1,5.3,12.9c4.6,2.4,11.1,2,14.8-2c2-2.1,2.3-5.2,2.6-8
	c-3.7,0.1-7.5,0.1-11.2,0c0-1.3,0.1-2.6,0.1-3.8c5.2,0,10.4,0,15.5,0c0,6.2,0,12.3,0,18.5c-1,0-2.1,0-3.1,0c-0.3-1.4-0.7-2.8-1-4.2
	c-6,6.9-18.2,6.9-24.1,0C149.9,386,149.5,379.3,150.4,373.4z"/>
<path class="st4" d="M285.3,364.5c2.1-3.2,6-4.7,9.7-4.8c4.3-0.2,8.9,0.8,12,3.9c1.8,1.9,2.2,4.6,2.4,7.1c-1.5,0-3.1,0-4.7,0
	c-0.4-2.2-1.2-4.6-3.4-5.8c-2.9-1.5-6.6-1.7-9.7-0.5c-3.2,1.2-4.8,6.2-1.7,8.4c5.2,2.7,11.4,2.3,16.5,5.2c4.3,2.6,4.8,8.8,2.4,12.9
	c-2,3-5.7,4.4-9.1,5c-4.8,0.6-10.1,0.3-13.8-3c-2.7-2.2-3.6-5.7-3.8-9c1.5,0,3.1,0,4.6,0c0.3,2.5,1.1,5.3,3.4,6.6
	c3.8,2.2,8.8,2,12.6-0.1c3.1-1.6,3.4-6.9,0.3-8.6c-5.2-2.7-11.4-2.2-16.4-5.2C282.8,374.2,282.9,368.1,285.3,364.5z"/>
<path class="st4" d="M366.2,360.6c1.5,0,3.1,0,4.6,0c0,1.6,0,3.1,0,4.8c-1.5,0-3.1,0-4.6,0C366.2,363.8,366.2,362.2,366.2,360.6z"/>
<path class="st4" d="M258.5,362.8c1.5,0,2.9,0,4.5,0c0,2.3,0,4.7,0,7c1.4,0,2.8,0,4.2,0c0,1.2,0,2.4,0,3.6c-1.4,0-2.8,0-4.2,0
	c0.1,5.7-0.1,11.5,0.1,17.3c0.8,1.4,2.7,1.1,4.1,1c0,1.2,0,2.4,0,3.6c-2.1,0.2-4.3,0.7-6.4-0.2c-1.8-0.8-2.4-3-2.3-4.8
	c0-5.6,0-11.2,0-16.8c-1.2,0-2.4,0-3.6,0c0-1.2,0-2.4,0-3.6c1.2,0,2.4,0,3.6,0C258.5,367.5,258.5,365.2,258.5,362.8z"/>
<path class="st4" d="M192.8,373.9c2-2.7,5-5.5,8.6-4.3c0,1.4-0.1,2.9-0.1,4.3c-1.8,0.1-3.9,0-5.5,1.2c-1.7,1.3-2.8,3.3-2.7,5.4
	c0,4.9,0,9.8,0,14.7c-1.5,0-3,0-4.5,0c0-8.5,0-16.9,0-25.3c1.4,0,2.8,0,4.2,0C192.9,371.2,192.9,372.5,192.8,373.9z"/>
<path class="st4" d="M206.6,372.5c4.7-4.5,13.1-4.1,17.3,0.8c2.4,3,2.4,7,2.7,10.6c-6.4,0-12.7,0-19,0c-0.1,3.5,1.7,7.8,5.6,8.3
	c3.7,0.9,7.5-1.5,8.6-5c1.5,0,2.9,0,4.4,0c-1,3.6-3.6,7.1-7.3,8.2c-3.6,1-7.8,1-11-1.3c-2.8-1.7-4.5-4.8-5-8
	C202.1,381.3,203.1,376,206.6,372.5 M209.2,375.8c-1,1.3-1.4,3-1.7,4.6c4.8,0,9.7,0,14.4,0c-0.5-1.8-0.7-3.8-2.1-5.2
	C217.1,372.1,211.6,372.5,209.2,375.8z"/>
<path class="st4" d="M233.6,371.5c4-2.7,9.2-2.8,13.6-1.2c2,0.7,3.7,2.2,4.1,4.3c0.6,5.8-0.5,11.7,0.6,17.4c0.8,0,1.7,0.1,2.7,0.1
	c0,1,0,2.1,0,3.1c-1.7,0.2-3.5,0.6-5.2,0.1c-1.3-0.5-1.7-2-2.2-3.1c-2.6,2.4-5.9,4-9.5,3.8c-3.3,0.1-6.6-1.9-7.7-5.1
	c-0.8-2.9-0.3-6.4,2.3-8.2c4.1-3.1,9.5-1.7,14.1-3.4c1.7-1.9,0.7-5.2-1.7-5.9c-2.4-0.8-5.5-0.9-7.6,0.6c-1.3,0.8-1.5,2.4-2,3.7
	c-1.3,0-2.7,0-4,0C231.1,375.5,231.6,372.9,233.6,371.5 M236.6,384.9c-2.4,1-3.1,4.5-1,6.2c2.7,2.2,6.7,1.3,9.3-0.6
	c2.5-1.8,2.3-5.1,2.2-7.8C243.6,384,239.9,383.5,236.6,384.9z"/>
<path class="st4" d="M318.3,371.4c4.1-2.7,9.5-2.7,14-1c1.8,0.8,3.4,2.4,3.7,4.4c0.5,5.7-0.5,11.5,0.5,17.1c0.9,0,1.7,0.1,2.7,0.1
	c0,1,0,2.1,0,3.2c-1.7,0.2-3.5,0.6-5.1,0c-1.4-0.5-1.7-2-2.2-3.2c-2.5,2.4-5.9,4.1-9.4,3.8c-3.3,0.1-6.7-1.9-7.7-5.1
	c-0.8-2.9-0.3-6.4,2.3-8.1c3.9-2.9,9.2-1.9,13.6-3.2c1.9-1,1.6-3.9,0.2-5.2c-3.6-2.6-10.6-1.8-11.1,3.5c-1.3,0-2.7,0-4,0
	C315.7,375.5,316.3,372.9,318.3,371.4 M321.7,384.6c-2.7,0.7-3.8,4.6-1.5,6.4c2.8,2.3,7.1,1.1,9.7-1c2.2-1.8,1.9-5,1.9-7.5
	C328.5,383.8,324.9,383.6,321.7,384.6z"/>
<path class="st4" d="M380.5,373.2c3.1-3.4,8.1-4.8,12.5-3.1c2.9,1,4.5,4.1,4.5,7.1c0.1,6,0,12.1,0.1,18.1c-1.5,0-3,0-4.5,0
	c0-5.4,0.1-10.8,0-16.2c0-2-0.6-4.2-2.4-5.2c-4-2-9.4,0.9-9.8,5.4c-0.3,5.3,0,10.6-0.1,16c-1.5,0-3,0-4.5,0c0-8.5,0-16.9,0-25.3
	c1.5,0,2.9,0,4.3,0C380.6,370.9,380.6,372,380.5,373.2z"/>
<path class="st4" d="M401.5,379.2c0.8-5,5-9.8,10.4-9.7c3.1-0.3,6.1,1.3,8.2,3.6c0-0.7-0.1-2.2-0.1-2.9c1.3,0,2.7,0,4.1,0
	c-0.1,7.8,0,15.7,0,23.5c0,4-1.2,8.6-5,10.6c-4,2-9,2-13,0.1c-2.5-1.1-3.8-3.7-4.1-6.3c1.5,0,3,0,4.5,0c0.6,1.5,1.3,3.2,3.1,3.6
	c2.9,0.7,6.5,0.6,8.6-1.7c1.7-2.4,1.4-5.5,1.7-8.3c-4.1,5.6-13.9,4.5-17.2-1.4C400.9,386.9,401.1,382.9,401.5,379.2 M410.1,373.8
	c-2.7,1-3.7,4-4.1,6.6c-0.3,3.1-0.3,6.6,1.6,9.3c2,2.8,6.3,2.8,9,1c2.5-1.9,3.3-5.2,3.4-8.2c-0.1-2.7-0.5-5.7-2.6-7.6
	C415.4,373.2,412.5,372.8,410.1,373.8z"/>
<path class="st4" d="M431.5,371.4c3.4-2.5,8-2.7,12-1.5c3.2,0.9,5.6,4,5.7,7.3c-1.4,0-2.7,0-4.1,0c-0.8-4.4-6.4-5-9.9-3.6
	c-2.1,0.8-2.4,3.9-0.4,5c4.2,2.3,9.7,1.7,13.6,4.7c3.4,3.6,1.4,9.9-2.9,11.7c-3.8,1.6-8.4,1.5-12.3,0.1c-3.2-1.3-4.6-4.8-5.1-7.9
	c1.4,0,2.9,0,4.3,0c0.3,2.2,1.5,4.3,3.8,4.8c2.7,0.6,5.9,0.8,8.3-1c1.6-1.1,1.9-4.1-0.1-5c-4.3-2.1-9.7-1.7-13.5-4.7
	C427.5,378.7,428.6,373.6,431.5,371.4z"/>
<path class="st4" d="M339.3,369.9c1.7,0,3.4-0.1,5-0.1c2.5,6.8,4.7,13.7,7.1,20.5c2.4-6.9,4.8-13.6,7.3-20.5c1.6,0,3.2,0,4.8,0
	c-3.2,8.5-6.6,16.9-9.8,25.3c-1.6,0-3.2,0-4.8,0C345.7,386.7,342.4,378.3,339.3,369.9z"/>
<path class="st4" d="M366.2,369.9c1.5,0,3.1,0,4.6,0c0,8.4,0,16.8,0,25.2c-1.5,0-3.1,0-4.6,0C366.2,386.7,366.2,378.3,366.2,369.9z"
	/>
<g id="_x23_000000ff">
	<path d="M204.7,61.8c3-2.5,7-3.3,10.8-3.2c3.2,0.2,6.7,1,9.1,3.5c1.7,1.8,2.3,4.4,2.4,6.8c0.1,3.9,0,7.9,0,11.8
		c0,1.7-0.2,3.4,0.4,5c0.4,1.2,1.3,2.2,1.9,3.3c0.3,0.4,0.4,1.2-0.1,1.6c-1.5,1.4-3.1,2.8-4.6,4.1c-0.4,0.4-1.1,0.6-1.6,0.3
		c-1.5-1.1-2.6-2.7-3.6-4.3c-1.8,2-4,3.8-6.7,4.4c-2.8,0.5-5.8,0.5-8.4-0.9c-2.1-1.2-3.5-3.4-4-5.7c-0.6-2.7-0.4-5.6,0.6-8.1
		c1.2-2.8,3.6-4.9,6.3-5.9c3.5-1.3,7.3-1.5,11-1.9c0-2,0.3-4.3-1.1-5.9c-2.3-2.4-7.1-1.3-8,2.1c-0.2,0.7-0.4,1.7-1.2,1.7
		c-1.7-0.1-3.3-0.4-5-0.5c-0.6-0.1-1.2,0-1.7-0.4c-0.4-0.3-0.4-0.8-0.3-1.2C201.5,65.8,202.8,63.4,204.7,61.8 M211.8,79
		c-1.4,0.8-2.4,2.2-2.7,3.8s-0.1,3.5,1,4.9c1.1,1.3,3,1.4,4.4,0.7c1.4-0.7,2.4-2.1,3-3.5c0.9-2.2,0.7-4.8,0.7-7.2
		C216,77.8,213.7,78,211.8,79z"/>
	<path d="M287.4,60.7c3.2-1.9,7.1-2.3,10.8-2c3.1,0.4,6.3,1.5,8.2,4.2c1.6,2.2,1.8,5.2,1.7,7.9c0,4,0,8,0,12c0,1.4,0.3,2.8,1,4
		c0.4,0.9,1.1,1.5,1.5,2.4c0.2,0.5,0.1,1.1-0.4,1.4c-1.5,1.3-3.1,2.7-4.5,4c-0.4,0.4-1.2,0.7-1.7,0.3c-1.4-1.1-2.5-2.6-3.5-4.2
		c-1.8,2-4,3.8-6.6,4.3c-2.9,0.5-6.1,0.6-8.7-1c-2.1-1.3-3.5-3.5-3.9-6c-0.4-2.6-0.3-5.4,0.8-7.8c1.2-2.8,3.7-4.8,6.5-5.8
		c3.5-1.3,7.1-1.4,10.8-1.8c0-1.7,0.2-3.5-0.5-5.2c-0.8-1.5-2.5-2.1-3.9-2c-1.9,0-3.9,1.3-4.5,3.3c-0.2,0.7-0.4,1.6-1.2,1.7
		c-2-0.2-3.9-0.4-5.9-0.6c-0.6,0-1.2-0.4-1.1-1.1C282.5,65.3,284.6,62.3,287.4,60.7 M292.7,79.2c-1.4,0.9-2.4,2.5-2.5,4.1
		c-0.1,1.5,0,3.3,1.1,4.4c1.1,1.3,3,1.4,4.4,0.7c1.4-0.7,2.4-2.1,3-3.5c0.9-2.2,0.7-4.8,0.6-7.1C297,77.8,294.7,78,292.7,79.2z"/>
	<path d="M245.5,60.3c2.2-1.6,5.2-1.8,7.7-1c2.5,0.9,4.2,3.2,5.2,5.7c0.7-1.8,1.8-3.5,3.5-4.6c3.6-2.5,9.1-1.9,11.9,1.7
		c1.7,2.1,2,5,1.9,7.6c-0.1,8,0,16.1,0,24.1c0.1,0.7-0.6,1.3-1.2,1.2c-2.1,0-4.1,0-6.1,0c-0.7,0-1.2-0.7-1.1-1.4
		c0-6.9,0-13.7,0-20.6c0-1.7,0-3.6-1.2-4.9c-1.6-1.3-4.1-1-5.5,0.5c-1.3,1.4-1.3,3.5-1.3,5.3c0,6.5,0,13.1,0,19.6
		c0,0.6-0.4,1.4-1,1.4c-1.9,0.1-3.8,0-5.7,0c-0.5,0-1.1,0.1-1.5-0.3c-0.4-0.3-0.4-0.9-0.4-1.3c0-5.6,0-11.2,0-16.8
		c0-2.2,0.2-4.4-0.3-6.5c-0.3-1-0.9-2.1-1.8-2.6c-1.2-0.5-2.5-0.4-3.6,0.2c-1.1,0.6-1.7,1.9-1.9,3.2c-0.4,2.1-0.3,4.1-0.4,6.2
		c0,5.6,0,11.2,0,16.8c0,0.7-0.6,1.3-1.2,1.2c-2,0-3.9,0-5.9,0c-0.5,0-1.2-0.2-1.3-0.8c-0.1-0.5,0-1.1,0-1.6c0-10.5,0-21.1,0-31.6
		c-0.1-0.7,0.5-1.3,1.2-1.3c1.9,0,3.8,0,5.7,0c0.6,0,1.3,0.4,1.3,1.1c0,1.5,0,2.9,0,4.4C242.9,63.3,243.9,61.4,245.5,60.3z"/>
	<path d="M352.8,59.2c3.3-0.7,6.9-0.3,9.8,1.5c2.7,1.7,4.7,4.5,5.8,7.6c1.4,3.9,1.7,8,1.3,12.1c-0.5,4.5-2.2,9-5.6,12
		c-4.7,4.3-12.4,4.3-17-0.1c-3.2-3.1-4.8-7.6-5.2-12c-0.5-5,0-10.2,2.4-14.6C346.2,62.5,349.2,59.9,352.8,59.2 M354.8,65.8
		c-1.3,0.3-2.3,1.4-2.8,2.7c-1,2.5-1,5.2-1.1,7.8c0,2.7,0,5.5,0.7,8.1c0.3,1.3,0.9,2.6,1.8,3.5c1.4,1.3,3.8,1.1,5.1-0.3
		c0.9-1,1.4-2.3,1.7-3.6c0.4-2.1,0.5-4.2,0.5-6.3c0-2.6-0.1-5.3-0.7-7.9c-0.3-1.2-0.7-2.4-1.6-3.2C357.6,65.7,356.1,65.5,354.8,65.8
		z"/>
	<path d="M386.2,60.4c2.1-1.6,4.9-1.7,7.4-1.2c2.7,0.6,4.9,3,5.7,5.8c0.7,2.5,0.7,5.2,0.7,7.7c0,7,0,14,0,21c0,0.7-0.6,1.3-1.3,1.2
		c-2.1,0-4.1,0-6.1,0c-0.7,0-1.2-0.8-1.1-1.4c0-6.5,0-13.1,0-19.6c-0.1-1.9,0-3.9-1.1-5.5c-1.2-1.7-3.9-1.7-5.3-0.2
		c-1.5,1.6-1.8,4-1.9,6.1c0,6.4,0,12.7,0,19.1c0.1,0.8-0.6,1.5-1.4,1.5c-2,0-3.9,0-5.9,0c-0.7,0-1.3-0.5-1.3-1.2
		c0-10.9,0-21.9,0-32.8c-0.1-0.8,0.6-1.3,1.3-1.3c1.8,0,3.6,0,5.4,0c0.6,0,1.4,0.3,1.3,1.1c0,1.7,0,3.4,0,5.1
		C383.5,63.7,384.4,61.7,386.2,60.4z"/>
	<path d="M315.6,60.7c0-0.7,0.6-1.2,1.3-1.1c6.7,0,13.5,0,20.2,0c0.6,0,1.2,0.5,1.2,1.1c0,1.3,0,2.6,0,3.8c0,1-0.6,1.9-1.1,2.7
		c-3.6,5.4-7.3,10.8-10.9,16.2c3.9-0.1,8,0.5,11.5,2.6c0.8,0.4,1.2,1.3,1.2,2.2c0,1.6,0,3.2,0,4.8c0,0.7-0.5,1.3-1.2,1.3
		c-0.6-0.2-1.2-0.6-1.8-0.9c-5.9-2.6-12.9-2.6-18.7,0.1c-0.6,0.3-1.1,0.6-1.7,0.8c-0.6,0-1.1-0.7-1.1-1.3c0-1.7,0-3.3,0-5
		c0-1.1,0.3-2.3,0.9-3.3c4-6,8-12,12-17.9c-3.5,0-7,0-10.5,0c-0.7,0.1-1.3-0.5-1.3-1.3C315.5,63.8,315.5,62.3,315.6,60.7z"/>
</g>
<g id="_x23_ff9900ff">
	<path class="st5" d="M322.6,96.7c3-0.4,6-0.5,8.9,0.2c0.8,0.2,1.7,0.4,2.3,1c0.5,0.9,0.4,2.1,0.4,3.1c-0.3,3.5-1.3,7-3,10.1
		c-1,2-2.3,3.8-4,5.2c-0.4,0.3-1,0.6-1.4,0.3c-0.2-0.3-0.2-0.6-0.1-0.9c1.2-3.3,2.5-6.5,3.2-10c0.2-1.3,0.5-2.6-0.1-3.8
		c-0.7-0.9-1.9-0.9-3-1.1c-3.6-0.3-7.1,0.2-10.7,0.6c-0.4,0.1-0.9-0.1-1-0.6c0.1-0.6,0.6-1,1.1-1.3C317.5,98,320.1,97.2,322.6,96.7z
		"/>
	<path class="st5" d="M228.5,98.7c0.8-0.4,1.5,0.3,2.2,0.7c13,7.7,27.6,12.2,42.4,13.5c16.3,1.5,32.9-1.2,48.1-7.6
		c0.9-0.4,2.1-1.1,3.1-0.4c1,0.6,0.8,2.2-0.1,2.7c-6.7,5.1-14.4,8.5-22.4,10.8c-11.3,3.2-23.2,3.8-34.7,1.6
		c-14.3-2.6-27.7-9.5-38.5-19.6C228,100,227.8,99.1,228.5,98.7z"/>
</g>
</svg>
